<?xml version="1.0" standalone="no"?>
<!DOCTYPE svg PUBLIC "-//W3C//DTD SVG 20010904//EN"
 "http://www.w3.org/TR/2001/REC-SVG-20010904/DTD/svg10.dtd">
<svg version="1.0" xmlns="http://www.w3.org/2000/svg"
 width="512.000000pt" height="512.000000pt" viewBox="0 0 512.000000 512.000000"
 preserveAspectRatio="xMidYMid meet">

<g transform="translate(0.000000,512.000000) scale(0.100000,-0.100000)"
 stroke="none">
<path d="M1131 4849 c-351 -37 -666 -256 -822 -570 -43 -85 -74 -172 -95 -260
-17 -68 -18 -169 -21 -1332 l-4 -1258 -44 -54 c-91 -112 -133 -217 -142 -355
-21 -339 236 -628 577 -647 167 -9 321 45 443 157 58 53 83 84 131 163 l17 28
35 -26 c84 -64 238 -114 352 -115 118 0 270 49 361 118 23 17 36 22 39 14 12
-36 91 -138 144 -186 221 -201 554 -207 793 -15 33 26 76 70 95 98 19 28 38
50 42 51 4 0 20 -19 37 -43 92 -134 274 -233 447 -244 152 -10 284 28 407 118
l71 51 20 -28 c73 -100 185 -180 309 -220 101 -32 237 -36 336 -10 265 69 461
320 461 591 0 134 -55 287 -140 389 l-40 48 0 1262 c0 858 -4 1290 -11 1351
-31 252 -143 474 -325 645 -173 162 -380 255 -623 280 -127 12 -2727 11 -2850
-1z m426 -298 c79 -40 123 -112 123 -201 0 -204 -245 -302 -387 -154 -45 46
-63 93 -63 162 0 162 180 269 327 193z m2580 1 c187 -96 149 -377 -57 -421
-106 -23 -213 32 -254 131 -21 50 -20 134 3 184 22 49 90 109 139 123 50 14
123 6 169 -17z m-1214 -1144 c59 -189 125 -399 147 -468 22 -69 49 -136 60
-148 27 -29 61 -28 91 2 13 13 145 234 294 490 l270 466 127 0 c112 0 127 -2
132 -17 3 -10 49 -186 101 -392 52 -206 102 -385 110 -398 38 -57 61 -19 154
257 45 134 86 251 91 259 6 10 10 -197 10 -527 0 -432 -3 -542 -12 -536 -7 4
-37 23 -67 42 -94 60 -166 52 -190 -20 -6 -18 -20 -161 -31 -318 -22 -322 -28
-370 -42 -388 -8 -9 -14 -10 -25 0 -22 18 -32 40 -178 413 -75 193 -146 367
-158 388 -36 65 -99 63 -145 -6 -15 -23 -123 -203 -238 -401 -115 -197 -222
-371 -237 -387 -38 -39 -85 -39 -127 -2 -17 16 -132 201 -256 413 -124 212
-235 395 -247 407 -12 12 -35 25 -52 28 -63 12 -76 -6 -308 -426 -120 -217
-230 -404 -243 -416 -37 -33 -89 -31 -122 6 -15 15 -78 120 -140 233 -174 314
-196 316 -364 27 l-93 -159 -3 887 -2 886 21 44 c12 25 25 41 29 36 5 -4 101
-202 215 -440 114 -237 217 -440 229 -452 12 -11 36 -24 53 -27 27 -5 37 -1
71 32 22 22 151 203 288 404 136 201 276 407 311 458 l64 92 152 0 152 0 108
-342z"/>
</g>
</svg>
