<?xml version="1.0" standalone="no"?>
<!DOCTYPE svg PUBLIC "-//W3C//DTD SVG 20010904//EN"
 "http://www.w3.org/TR/2001/REC-SVG-20010904/DTD/svg10.dtd">
<svg version="1.0" xmlns="http://www.w3.org/2000/svg"
 width="512.000000pt" height="512.000000pt" viewBox="0 0 512.000000 512.000000"
 preserveAspectRatio="xMidYMid meet">

<g transform="translate(0.000000,512.000000) scale(0.100000,-0.100000)"
 stroke="none">
<path d="M3721 4464 c-169 -45 -301 -180 -346 -351 -23 -86 -23 -3020 0 -3106
45 -173 178 -307 350 -352 84 -21 466 -21 550 0 172 45 305 179 350 352 23 86
23 3020 0 3106 -45 173 -178 307 -350 352 -81 21 -475 20 -554 -1z"/>
<path d="M2281 3504 c-169 -45 -301 -180 -346 -351 -23 -87 -22 -2060 0 -2148
45 -172 179 -305 352 -350 81 -21 465 -21 546 0 173 45 307 178 352 350 22 88
23 2061 0 2148 -45 173 -178 307 -350 352 -81 21 -475 20 -554 -1z"/>
<path d="M841 2544 c-169 -45 -301 -180 -346 -351 -22 -85 -22 -1101 0 -1186
45 -173 178 -307 350 -352 84 -21 466 -21 550 0 172 45 305 179 350 352 22 85
22 1101 0 1186 -45 173 -178 307 -350 352 -81 21 -475 20 -554 -1z"/>
</g>
</svg>
